# xmcd CD database file
# Copyright (C) 2008 Ti Kan
# 
# Track frame offsets:
#     150
#     16001
#     46098
# 
# Disc length: 883 seconds
# 
# Revision: 1
# Processed by: cddbd v1.5.2PL0 Copyright (c) Steve Scherf et al.
# Submitted via: DiscPlay 4.0.4
# 
DISCID=13037103
DTITLE=Alphabeat - 10,000 Nights
DYEAR=1900
DGENRE=
TTITLE0=10,000 Nights
TTITLE1=10,000 Nights (Bimbo Jones Remix)
TTITLE2=Fascination (Alphabeat Vs Frankmusik)
EXTD=
EXTT0=
EXTT1=
EXTT2=
PLAYORDER=
